<?xml version="1.0" encoding="UTF-8" standalone="no"?>
<svg
   xmlns:dc="http://purl.org/dc/elements/1.1/"
   xmlns:cc="http://creativecommons.org/ns#"
   xmlns:rdf="http://www.w3.org/1999/02/22-rdf-syntax-ns#"
   xmlns:svg="http://www.w3.org/2000/svg"
   xmlns="http://www.w3.org/2000/svg"
   xmlns:sodipodi="http://sodipodi.sourceforge.net/DTD/sodipodi-0.dtd"
   xmlns:inkscape="http://www.inkscape.org/namespaces/inkscape"
   sodipodi:docname="logo.svg"
   inkscape:version="1.0 (6e3e5246a0, 2020-05-07)"
   id="svg1343"
   version="1.1"
   viewBox="0 0 39.6875 26.458334"
   height="100"
   width="150">
  <defs
     id="defs1337" />
  <sodipodi:namedview
     inkscape:window-maximized="0"
     inkscape:window-y="4"
     inkscape:window-x="4"
     inkscape:window-height="1045"
     inkscape:window-width="952"
     units="px"
     showgrid="false"
     inkscape:document-rotation="0"
     inkscape:current-layer="layer1"
     inkscape:document-units="px"
     inkscape:cy="53.798385"
     inkscape:cx="66.619209"
     inkscape:zoom="1.2891403"
     inkscape:pageshadow="2"
     inkscape:pageopacity="0.0"
     borderopacity="1.0"
     bordercolor="#666666"
     pagecolor="#ffffff"
     id="base">
    <inkscape:grid
       id="grid1400"
       type="xygrid" />
  </sodipodi:namedview>
  <metadata
     id="metadata1340">
    <rdf:RDF>
      <cc:Work
         rdf:about="">
        <dc:format>image/svg+xml</dc:format>
        <dc:type
           rdf:resource="http://purl.org/dc/dcmitype/StillImage" />
        <dc:title></dc:title>
      </cc:Work>
    </rdf:RDF>
  </metadata>
  <g
     id="layer1"
     inkscape:groupmode="layer"
     inkscape:label="Layer 1">
    <path
       inkscape:export-ydpi="300"
       inkscape:export-xdpi="300"
       sodipodi:nodetypes="csssssssssccsscsccsscsssssssssssssssscccssssssssscsssssssssssscssssssssscsssssssssss"
       id="path1359"
       d="m 28.323468,19.76288 c -2.884067,-0.458836 -5.394076,-1.835611 -5.040754,-2.764923 0.03329,-0.08755 0.113173,-0.162065 0.177517,-0.165578 0.279092,-0.01525 0.626629,0.02182 0.98424,0.104951 0.211281,0.04911 0.397301,0.07614 0.413381,0.06006 0.01607,-0.01607 0.05111,-0.379254 0.07784,-0.807051 0.113644,-1.818709 0.787488,-4.516941 1.504493,-6.024358 0.52699,-1.1079281 1.003441,-1.6837112 1.521743,-1.8389969 0.405606,-0.1215238 0.428231,-0.068872 0.422824,0.9840723 -0.0051,0.9856066 -0.08099,1.4779536 -0.596699,3.8691436 -0.289124,1.340589 -0.475935,2.984078 -0.484009,4.258157 l -0.0022,0.368874 0.510881,0.115751 c 1.928724,0.437011 3.429492,-0.06216 4.02865,-1.339986 0.160137,-0.341525 0.173583,-0.437434 0.172068,-1.227433 -0.002,-0.995013 -0.27351,-1.507151 -0.487007,-2.125362 l -0.167808,-0.485915 -0.866238,0.172038 c -1.196083,-2.49e-4 -1.647141,-0.197212 -1.721467,-0.751349 -0.04703,-0.350615 0.09717,-0.569216 0.497561,-0.754275 0.26139,-0.120813 0.43156,-0.142701 1.133578,-0.145803 0.454309,-0.002 0.902482,0.236871 0.947383,0.209124 0.143013,-0.08839 0.35399,-0.920976 0.438062,-1.3483 C 31.888514,9.6123045 31.834677,8.8957286 31.666743,8.5184781 31.287415,7.666329 30.091122,7.2013814 28.560594,7.3112501 27.638549,7.3774411 26.832714,7.60839 25.813218,8.0986385 24.888734,8.5432009 24.577019,8.6425133 24.341129,8.5676447 23.767614,8.3856181 25.042983,6.9601002 26.37892,6.2899479 c 1.250989,-0.6275384 2.695242,-0.845766 4.317765,-0.6524132 2.027462,0.2416051 3.284614,1.0209061 3.794532,2.3522017 0.203426,0.5311011 0.251414,1.5612655 0.09768,2.0969056 -0.208642,0.726963 -0.632184,1.29662 -1.302476,1.751806 -0.209776,0.142457 -0.381414,0.26854 -0.381414,0.280183 0,0.01163 0.170569,0.134345 0.37904,0.272669 0.785866,0.521429 1.357737,1.231043 1.613467,2.002088 0.181916,0.548494 0.229277,1.706005 0.09166,2.240203 -0.31897,1.238167 -1.270895,2.20075 -2.687737,2.717831 -0.879247,0.320886 -1.313918,0.390929 -2.593551,0.417919 -0.65261,0.01378 -1.275554,0.01086 -1.384321,-0.0064 z M 6.2968017,19.556502 c -0.699703,-0.564377 -0.608958,-2.319135 0.409346,-7.91561 0.428209,-2.3533857 0.494877,-3.0150546 0.354662,-3.5199454 -0.181327,-0.6529239 -0.69933,-0.8062239 -1.293108,-0.3826869 -0.753912,0.5377608 -0.968125,0.6627402 -1.135939,0.6627402 -0.262618,0 -0.33616,-0.1159528 -0.33616,-0.5300173 0,-1.225164 1.383756,-2.2386256 3.056563,-2.2386256 0.679318,0 1.113318,0.1452874 1.455169,0.4871366 0.338581,0.338583 0.473057,0.6743181 0.582033,1.4531134 l 0.0824,0.5888932 0.26296,-0.4508684 C 10.052296,7.1661316 10.770491,6.3804549 11.206284,6.1008076 c 0.943682,-0.6055586 2.14348,-0.6790269 3.106685,-0.190231 0.816517,0.4143559 1.175467,1.1413686 1.237739,2.5069019 0.01943,0.4260085 0.04514,0.7745623 0.05715,0.7745623 0.01201,0 0.252664,-0.2335203 0.534793,-0.5189328 0.78102,-0.7901115 1.519558,-1.1020905 2.484541,-1.049538 1.816128,0.098906 2.443185,1.5123181 1.979095,4.460947 -0.05352,0.340028 -0.280021,1.37827 -0.503337,2.307201 -0.569347,2.368316 -0.560109,2.974408 0.04534,2.974408 0.315647,0 0.752122,-0.325829 1.788181,-1.334881 0.511862,-0.49852 0.975556,-0.9064 1.030431,-0.9064 0.200645,0 0.280723,0.205234 0.280449,0.718773 -2.49e-4,0.437666 -0.02779,0.554025 -0.21878,0.923659 -0.588729,1.139405 -1.648711,2.064609 -2.85714,2.493844 -0.663615,0.235715 -1.666139,0.254743 -2.065578,0.03921 -0.323872,-0.17477 -0.569728,-0.433038 -0.744547,-0.78215 -0.323442,-0.645908 -0.257092,-1.269433 0.386352,-3.630736 0.868172,-3.186003 1.008633,-4.171648 0.660301,-4.633441 -0.155412,-0.206037 -0.531205,-0.209847 -0.924172,-0.0094 -1.040494,0.530819 -2.382366,2.860341 -2.954372,5.12886 -0.165017,0.654433 -0.17742,0.797633 -0.166268,1.919476 0.01318,1.32628 4.98e-4,1.385323 -0.383581,1.774826 -0.37239,0.377721 -0.745265,0.554391 -1.245657,0.590194 -0.415506,0.02973 -0.464066,0.01923 -0.61641,-0.133099 -0.213113,-0.213113 -0.373161,-0.75698 -0.372062,-1.264328 0.0012,-0.544233 0.15978,-1.267529 0.745411,-3.399397 C 13.46373,11.319594 13.68868,9.8657186 13.424503,8.8268515 13.285745,8.2811878 13.051887,8.071172 12.584011,8.072044 c -1.48411,0.00277 -2.8574233,2.202554 -3.8406893,6.152048 -0.275323,1.105893 -0.276968,1.240875 -0.03186,2.614678 0.220217,1.234283 0.10221,1.883562 -0.410608,2.259165 -0.665627,0.48753 -1.6803,0.71971 -2.004053,0.458569 z"
       style="mix-blend-mode:screen;fill:#6ad7e5;fill-opacity:1;stroke-width:0.43629792;stroke:#000000;stroke-opacity:1;stroke-miterlimit:4;stroke-dasharray:none" />
    <rect
       y="3.2256389"
       x="68.743294"
       height="24.335726"
       width="28.49781"
       id="rect1402"
       style="fill:#280b0b;fill-opacity:1;stroke:#000000;stroke-width:0.749001" />
  </g>
</svg>
