<?xml version="1.0" encoding="UTF-8" standalone="no"?>
<svg
   xmlns:dc="http://purl.org/dc/elements/1.1/"
   xmlns:cc="http://creativecommons.org/ns#"
   xmlns:rdf="http://www.w3.org/1999/02/22-rdf-syntax-ns#"
   xmlns:svg="http://www.w3.org/2000/svg"
   xmlns="http://www.w3.org/2000/svg"
   xmlns:sodipodi="http://sodipodi.sourceforge.net/DTD/sodipodi-0.dtd"
   xmlns:inkscape="http://www.inkscape.org/namespaces/inkscape"
   inkscape:export-ydpi="300.98822"
   inkscape:export-xdpi="300.98822"
   inkscape:export-filename="/home/victor/Documents/Projects/source.metalblueberry.io/static/profile.png"
   sodipodi:docname="profile.svg"
   inkscape:version="1.0 (6e3e5246a0, 2020-05-07)"
   id="svg8"
   version="1.1"
   viewBox="0 0 35.71876 51.593772"
   height="195"
   width="135">
  <defs
     id="defs2" />
  <sodipodi:namedview
     units="px"
     inkscape:window-maximized="0"
     inkscape:window-y="0"
     inkscape:window-x="0"
     inkscape:window-height="1080"
     inkscape:window-width="1920"
     inkscape:snap-nodes="false"
     inkscape:snap-intersection-paths="false"
     showgrid="false"
     inkscape:document-rotation="0"
     inkscape:current-layer="layer1"
     inkscape:document-units="px"
     inkscape:cy="152.9504"
     inkscape:cx="89.932754"
     inkscape:zoom="1.979899"
     inkscape:pageshadow="2"
     inkscape:pageopacity="0.0"
     borderopacity="1.0"
     bordercolor="#666666"
     pagecolor="#ffffff"
     id="base" />
  <metadata
     id="metadata5">
    <rdf:RDF>
      <cc:Work
         rdf:about="">
        <dc:format>image/svg+xml</dc:format>
        <dc:type
           rdf:resource="http://purl.org/dc/dcmitype/StillImage" />
        <dc:title></dc:title>
      </cc:Work>
    </rdf:RDF>
  </metadata>
  <g
     inkscape:label="Layer 2"
     id="layer2"
     inkscape:groupmode="layer" />
  <g
     id="layer1"
     inkscape:groupmode="layer"
     inkscape:label="Layer 1">
    <g
       inkscape:export-ydpi="300.84409"
       inkscape:export-xdpi="300.84409"
       transform="matrix(0.33435938,0,0,0.34324289,-15.852414,-18.593889)"
       id="g1271">
      <path
         id="path248"
         style="fill:#613200;fill-opacity:1;fill-rule:evenodd;stroke:#000000;stroke-width:0.750376;stroke-miterlimit:4;stroke-dasharray:none;stroke-opacity:1"
         d="m 94.017996,56.078786 a 6.6258921,8.5345243 82.651731 0 0 -7.616602,7.662854 6.6258921,8.5345243 82.651731 0 0 1.187462,2.721213 l 15.282364,-1.970804 a 6.6258921,8.5345243 82.651731 0 0 0.45894,-2.933532 6.6258921,8.5345243 82.651731 0 0 -9.312164,-5.479731 z" />
      <path
         fill-rule="evenodd"
         clip-rule="evenodd"
         fill="#f6d2a2"
         stroke="#000000"
         stroke-width="0.79375"
         stroke-linecap="round"
         d="m 50.783264,139.61286 c 0.202142,4.16745 4.36536,2.23917 6.251046,0.93636 1.789906,-1.23693 2.313252,-0.20876 2.470414,-2.6498 0.102923,-1.60444 0.287867,-3.20887 0.19685,-4.81965 -2.706687,-0.24527 -5.650706,0.39925 -7.869766,2.01136 -1.143,0.83053 -3.286125,3.48139 -1.048544,4.52173"
         id="path10" />
      <path
         fill-rule="evenodd"
         clip-rule="evenodd"
         fill="#c6b198"
         stroke="#000000"
         stroke-width="0.79375"
         stroke-linecap="round"
         d="m 50.783264,139.61286 c 0.605896,-0.22543 1.24804,-0.3855 1.659202,-0.93345"
         id="path12" />
      <path
         fill-rule="evenodd"
         clip-rule="evenodd"
         fill="#6ad7e5"
         stroke="#000000"
         stroke-width="0.79375"
         stroke-linecap="round"
         d="M 60.404308,89.966444 C 44.450727,85.480169 56.313585,65.184511 69.12471,73.532379 Z"
         id="path14" />
      <path
         fill-rule="evenodd"
         clip-rule="evenodd"
         fill="#6ad7e5"
         stroke="#000000"
         stroke-width="0.79375"
         stroke-linecap="round"
         d="m 131.28565,72.009438 c 12.62777,-8.869627 24.03899,11.141868 9.36308,16.176889 z"
         id="path16" />
      <path
         fill-rule="evenodd"
         clip-rule="evenodd"
         fill="#f6d2a2"
         stroke="#000000"
         stroke-width="0.79375"
         stroke-linecap="round"
         d="m 134.00187,190.90234 c 3.20754,1.98464 9.07044,7.98565 4.25873,10.89554 -4.62333,4.23307 -7.21096,-4.64635 -11.26887,-5.87666 1.74757,-2.37331 3.96266,-4.53734 7.01014,-5.01888 z"
         id="path18" />
      <path
         fill-rule="evenodd"
         clip-rule="evenodd"
         fill="none"
         stroke="#000000"
         stroke-width="0.79375"
         stroke-linecap="round"
         d="m 138.2606,201.79762 c -0.71332,-1.41844 -0.95277,-3.07393 -2.14366,-4.2172"
         id="path20" />
      <path
         fill-rule="evenodd"
         clip-rule="evenodd"
         fill="#f6d2a2"
         stroke="#000000"
         stroke-width="0.79375"
         stroke-linecap="round"
         d="m 76.697878,197.68414 c -3.764756,0.58261 -5.883804,3.97907 -9.022291,5.70389 -2.957513,1.76344 -4.088871,-0.56463 -4.355306,-1.03717 -0.46355,-0.2114 -0.424657,0.19685 -1.14009,-0.52361 -2.741612,-4.327 2.856706,-7.48983 5.771885,-9.6393 4.060296,-0.82074 6.604794,2.69928 8.745802,5.49619 z"
         id="path22" />
      <path
         fill-rule="evenodd"
         clip-rule="evenodd"
         fill="none"
         stroke="#000000"
         stroke-width="0.79375"
         stroke-linecap="round"
         d="m 63.320545,202.35059 c 0.143404,-1.64914 1.450975,-2.75351 2.073804,-4.14787"
         id="path24" />
      <path
         fill-rule="evenodd"
         clip-rule="evenodd"
         d="m 61.069999,84.360981 c -2.10476,-1.113367 -3.648868,-2.62546 -2.361406,-5.059891 1.191948,-2.253721 3.406246,-2.008982 5.511271,-0.895615 z"
         id="path26"
         style="stroke-width:0.264583" />
      <path
         fill-rule="evenodd"
         clip-rule="evenodd"
         d="m 137.32371,82.244314 c 2.10476,-1.113366 3.64887,-2.62546 2.36141,-5.059891 -1.19195,-2.253721 -3.40625,-2.008981 -5.51128,-0.895615 z"
         id="path28"
         style="stroke-width:0.264583" />
      <path
         fill-rule="evenodd"
         clip-rule="evenodd"
         fill="#f6d2a2"
         stroke="#000000"
         stroke-width="0.79375"
         stroke-linecap="round"
         d="m 151.81203,139.08369 c -0.20214,4.16745 -4.36536,2.23917 -6.25105,0.93636 -1.7899,-1.23692 -2.31325,-0.20875 -2.47041,-2.6498 -0.10293,-1.60443 -0.28787,-3.20887 -0.19685,-4.81965 2.70668,-0.24527 5.6507,0.39926 7.86976,2.01136 1.14274,0.83053 3.28613,3.48139 1.04855,4.52173"
         id="path30" />
      <path
         fill-rule="evenodd"
         clip-rule="evenodd"
         fill="#c6b198"
         stroke="#000000"
         stroke-width="0.79375"
         stroke-linecap="round"
         d="m 151.81203,139.08369 c -0.6059,-0.22542 -1.24804,-0.38549 -1.6592,-0.93345"
         id="path32" />
      <g
         id="g36"
         transform="matrix(0.26458333,0,0,0.26458333,47.969685,60.107421)">
	<path
   fill-rule="evenodd"
   clip-rule="evenodd"
   fill="#6ad7e5"
   stroke="#000000"
   stroke-width="3"
   stroke-linecap="round"
   d="m 195.512,13.124 c 60.365,0 116.953,8.633 146.452,66.629 26.478,65.006 17.062,135.104 21.1,203.806 3.468,58.992 11.157,127.145 -16.21,181.812 -28.79,57.514 -100.73,71.982 -160,69.863 C 140.299,533.568 84.06,518.38 57.785,475.845 26.959,425.945 41.553,351.747 43.792,296.223 46.444,230.452 25.977,164.481 47.584,100.122 69.999,33.359 130.451,18.271 195.512,13.124"
   id="path34" />

</g>
      <path
         fill-rule="evenodd"
         clip-rule="evenodd"
         fill="#ffffff"
         stroke="#000000"
         stroke-width="0.746495"
         stroke-linecap="round"
         d="m 69.957353,87.716691 c 0.464575,1.81405 1.224756,3.343279 2.197671,4.602115 0.972915,1.258836 2.675476,1.656281 4.183228,1.988679 3.897187,0.859172 8.070221,0.722072 11.971735,-0.11723 1.423886,-0.306309 2.971772,-0.673286 4.000262,-1.757667 1.02849,-1.084382 1.483507,-2.331875 2.025887,-3.79833 0.54238,-1.466455 0.943311,-2.967714 0.833839,-4.787386 0.286818,-2.353315 0.170623,-3.924357 -0.704336,-5.466099 -0.874963,-1.541741 -2.063558,-2.770867 -3.449255,-3.699745 -1.385698,-0.928878 -2.968497,-1.557507 -4.631868,-1.898255 -1.663372,-0.340748 -3.407315,-0.393615 -5.1153,-0.170969 -1.707984,0.222647 -3.38001,0.720808 -4.899547,1.482115 -1.519538,0.761308 -2.75826,1.186944 -3.856289,2.462178 -3.525977,0.290711 -3.792476,3.015073 -3.635222,5.148105 0.101393,1.932788 0.635026,3.783649 1.079197,6.012532"
         id="path40"
         sodipodi:nodetypes="csaassccccccccc" />
      <g
         id="g48"
         transform="matrix(0.33943607,0,0,0.31338376,39.147969,54.663942)">
	<ellipse
   fill-rule="evenodd"
   clip-rule="evenodd"
   cx="107.324"
   cy="95.403999"
   rx="14.829"
   ry="16.062"
   id="ellipse44" />

	<ellipse
   fill-rule="evenodd"
   clip-rule="evenodd"
   fill="#ffffff"
   cx="114.069"
   cy="99.028999"
   rx="3.4960001"
   ry="4.0819998"
   id="ellipse46" />

</g>
      <path
         sodipodi:nodetypes="csaassccccccccc"
         id="path40-3"
         d="m 129.39984,87.443138 c -0.46458,1.81405 -1.22476,3.343279 -2.19767,4.602115 -0.97292,1.258836 -2.67548,1.656281 -4.18323,1.988679 -3.89719,0.859172 -8.07022,0.722072 -11.97174,-0.11723 -1.42388,-0.306309 -2.97177,-0.673286 -4.00026,-1.757667 -1.02849,-1.084382 -1.48351,-2.331875 -2.02589,-3.79833 -0.54238,-1.466455 -0.94331,-2.967714 -0.83384,-4.787386 -0.28681,-2.353315 -0.17062,-3.924356 0.70434,-5.466099 0.87496,-1.54174 2.06356,-2.770867 3.44925,-3.699745 1.3857,-0.928878 2.9685,-1.557507 4.63187,-1.898255 1.66337,-0.340748 3.40732,-0.393615 5.1153,-0.170969 1.70799,0.222647 3.38001,0.720808 4.89955,1.482115 1.51954,0.761308 2.75826,1.186944 3.85629,2.462178 3.52598,0.290711 3.79248,3.015074 3.63522,5.148105 -0.10139,1.932788 -0.63502,3.783649 -1.0792,6.012532"
         stroke-linecap="round"
         stroke-width="0.746495"
         stroke="#000000"
         fill="#ffffff"
         clip-rule="evenodd"
         fill-rule="evenodd" />
      <g
         id="g54"
         transform="matrix(0.3256659,0,0,0.30507687,36.20109,57.025762)">
	<ellipse
   fill-rule="evenodd"
   clip-rule="evenodd"
   cx="231.571"
   cy="91.403999"
   rx="14.582"
   ry="16.062"
   id="ellipse50" />

	<ellipse
   fill-rule="evenodd"
   clip-rule="evenodd"
   fill="#ffffff"
   cx="238.20399"
   cy="95.028999"
   rx="3.438"
   ry="4.0819998"
   id="ellipse52" />

</g>
      <path
         id="path1120"
         style="fill:#3b1e00;fill-opacity:1;stroke:#000000;stroke-width:2.83087;stroke-linecap:butt;stroke-linejoin:miter;stroke-miterlimit:4;stroke-dasharray:none;stroke-opacity:1"
         d="m 531.58594,333.30273 c 0,0 -12.36496,25.92739 -22.30274,36.41602 -14.83256,6.48794 -34.25114,14.11001 -51.48828,13.56055 0,0 -32.6211,-17.22525 -49.45632,-18.09595 -9.86049,-0.50997 -27.55815,5.62421 -27.55815,5.62421 0,0 -18.57553,-5.66947 -27.45692,-5.79723 -22.21735,-0.3196 -31.38199,14.61396 -51.99123,22.99631 -21.41375,-4.41902 -34.57162,-11.47503 -53.05886,-22.69805 -10.00652,-13.14365 -22.42969,-26.35742 -22.42969,-26.35742 -2.16488,20.33659 -11.25108,56.05752 -4.3437,76.55779 6.63122,19.68068 20.71421,50.97698 37.87317,62.67617 35.56498,24.24869 72.61524,26.40892 126.59863,29.4932 53.98341,3.08429 118.73981,-32.46097 130.33007,-42.74207 11.59026,-10.28111 21.06014,-41.15372 23.11605,-58.49771 2.29111,-19.32782 -2.09195,-54.40419 -7.83203,-73.13582 z M 382.34375,379.9043 c 0,0 41.96562,1.14622 48.4865,16.98075 3.39562,8.24553 -4.30484,19.07438 -11.69954,24.05808 -10.64385,7.1735 -38.41784,2.61257 -38.41784,2.61257 0,0 -19.32843,6.41683 -27.56892,2.27909 -10.26021,-5.15187 -22.0254,-18.3911 -18.22638,-29.22536 5.54606,-15.81657 47.42618,-16.70513 47.42618,-16.70513 z"
         sodipodi:nodetypes="cccscscccsssssccaacaac"
         transform="scale(0.26458333)" />
      <path
         fill-rule="evenodd"
         clip-rule="evenodd"
         fill="#ffffff"
         stroke="#000000"
         stroke-width="0.750466"
         stroke-linecap="round"
         d="m 106.50606,109.31177 c 1.72474,3.68083 -1.09826,9.30977 -5.77796,3.88078 0.33453,-2.33481 0.0117,-2.86386 -0.0729,-5.1996 z"
         id="path56"
         sodipodi:nodetypes="cccc" />
      <path
         fill-rule="evenodd"
         clip-rule="evenodd"
         fill="#ffffff"
         stroke="#000000"
         stroke-width="0.756553"
         stroke-linecap="round"
         d="m 95.179696,107.73774 c -0.01228,1.95551 -1.437335,5.89959 -1.024653,7.97997 0.557009,0.9435 1.89906,1.95046 2.841003,2.33173 1.302624,-0.18311 2.136426,-0.85788 2.6588,-1.94987 0.334323,-2.37451 0.334705,-5.19221 0.250264,-7.56767 z"
         id="path42"
         sodipodi:nodetypes="cccccc" />
      <g
         id="g62"
         transform="matrix(0.26458333,0,0,0.26458333,47.99362,63.151036)">
	<path
   fill-rule="evenodd"
   clip-rule="evenodd"
   fill="#f6d2a2"
   stroke="#231f20"
   stroke-width="3"
   stroke-linecap="round"
   d="m 178.431,145.02671 c -12.059,1.028 -26.65501,5.2644 -18.8076,19.72264 5.13894,7.58041 9.77569,9.6398 17.43026,9.75731 5.98088,-2.48947 14.71095,-3.42491 21.19609,-3.88207 18.41897,1.93825 30.73122,7.38974 40.92985,-3.95497 16.33951,-17.74108 -8.2846,-17.61391 -21.5526,-23.21091 z"
   id="path58"
   sodipodi:nodetypes="ccccccc" />

	<path
   fill-rule="evenodd"
   clip-rule="evenodd"
   d="m 176.913,144.39871 c -0.893,-20.891 37.4728,-23.18305 42.1768,-5.69605 4.692,17.446 -40.2158,21.17805 -42.1768,5.69605 -1.565,-12.363 0,0 0,0 z"
   id="path60"
   sodipodi:nodetypes="cccc" />

</g>
      <path
         id="path1179"
         style="fill:#000000;stroke-width:0.0879578"
         d="m 79.827114,75.054851 c -2.569383,0.01754 -5.191717,0.156953 -8.195836,0.340029 -2.244104,0.268076 -3.613902,0.172626 -5.754408,0.786636 -0.30107,1.500761 -0.84652,0.02535 -0.909682,1.560814 0.485662,0.414057 1.015154,0.483547 1.852546,1.370179 0.837391,0.886631 1.35765,4.00227 1.53063,4.565865 h 1.449861 c -0.06579,-1.093245 -0.102624,-2.186178 -0.140999,-3.2644 -0.123131,-1.146485 -0.05034,-2.532536 1.414471,-2.962609 7.429693,-1.801815 12.050596,-1.608961 19.498891,-0.15158 3.029847,0.221533 4.004053,3.712638 3.29883,6.022618 -0.08314,0.319624 0.46228,1.043278 0.821118,1.072737 l 1.396848,0.114673 c 1.164584,0.09561 0.461559,-4.536617 3.52547,-4.381902 2.288286,0.115552 2.538076,2.812921 2.951036,3.712523 0.41297,0.899601 0.648,0.968674 2.69032,0.190513 0.69521,-0.264888 -0.93059,-5.316568 1.97565,-5.953385 6.05713,-1.420561 12.27067,-2.089862 18.49251,-1.48844 2.18407,0.444103 2.81064,-0.101567 4.00707,1.98731 -0.005,1.627124 -0.0252,3.268422 -0.13482,4.902026 0,0 1.04278,-0.380222 1.41869,-0.763814 1.05529,-1.076829 0.82488,-3.161236 2.06328,-4.025113 1.2384,-0.863877 3.60309,-0.653485 3.72368,-1.746972 -0.17931,-0.717108 -1.11622,-0.525395 -1.76421,-0.973554 -4.32545,-0.562243 -8.71953,-0.758357 -13.09199,-0.728636 -5.82094,-0.208651 -14.44582,1.115599 -21.68498,1.090887 -3.368563,-0.01151 -5.46626,0.195898 -9.547513,-0.522851 -3.828076,-0.543893 -7.58298,-0.77611 -10.886473,-0.753554 z"
         sodipodi:nodetypes="scccsccccccsssssccccaccccscss" />
    </g>
  </g>
</svg>
